<svg xmlns="http://www.w3.org/2000/svg" width="900" height="1600" viewBox="0 0 900 1600">
  <defs>
    <linearGradient id="g3" x1="0" y1="0" x2="1" y2="1">
      <stop offset="0" stop-color="#0a2f1c"/>
      <stop offset="1" stop-color="#1dbf73"/>
    </linearGradient>
    <radialGradient id="glow3" cx="35%" cy="30%" r="75%">
      <stop offset="0" stop-color="#ffffff" stop-opacity="0.18"/>
      <stop offset="1" stop-color="#ffffff" stop-opacity="0"/>
    </radialGradient>
  </defs>
  <rect width="900" height="1600" fill="url(#g3)"/>
  <rect width="900" height="1600" fill="url(#glow3)"/>

  <!-- Handshake (abstract) -->
  <path d="M220 760c60-70 140-110 230-110 70 0 140 22 200 70l-70 80c-38-30-78-44-120-44-52 0-106 24-152 72z" fill="#ffffff" fill-opacity="0.12"/>
  <path d="M680 760c-60-70-140-110-230-110-70 0-140 22-200 70l70 80c38-30 78-44 120-44 52 0 106 24 152 72z" fill="#ffffff" fill-opacity="0.10"/>
  <path d="M320 860c50-52 98-78 146-78 48 0 96 26 146 78" fill="none" stroke="#ffffff" stroke-opacity="0.20" stroke-width="10" stroke-linecap="round"/>

  <!-- Two profiles -->
  <circle cx="260" cy="560" r="60" fill="#ffffff" fill-opacity="0.15"/>
  <circle cx="640" cy="560" r="60" fill="#ffffff" fill-opacity="0.15"/>
  <path d="M120 980c30-190 120-290 240-290s210 100 240 290" fill="#ffffff" fill-opacity="0.08"/>
  <path d="M420 980c30-190 120-290 240-290s210 100 240 290" fill="#ffffff" fill-opacity="0.06"/>

  <!-- Routing network hints -->
  <g fill="none" stroke="#ffffff" stroke-opacity="0.16" stroke-width="2">
    <path d="M140 300c160 40 240 40 400 0 120-30 180-30 260 10"/>
    <path d="M160 360c150 30 230 30 380 0 140-28 200-24 260 12"/>
  </g>
  <g fill="#ffffff" fill-opacity="0.14">
    <circle cx="170" cy="330" r="8"/>
    <circle cx="430" cy="310" r="8"/>
    <circle cx="720" cy="330" r="8"/>
  </g>
</svg>

