<svg xmlns="http://www.w3.org/2000/svg" width="900" height="1600" viewBox="0 0 900 1600">
  <defs>
    <linearGradient id="g" x1="0" y1="0" x2="1" y2="1">
      <stop offset="0" stop-color="#0b3d24"/>
      <stop offset="1" stop-color="#1dbf73"/>
    </linearGradient>
    <radialGradient id="glow" cx="35%" cy="30%" r="70%">
      <stop offset="0" stop-color="#ffffff" stop-opacity="0.22"/>
      <stop offset="1" stop-color="#ffffff" stop-opacity="0"/>
    </radialGradient>
  </defs>
  <rect width="900" height="1600" fill="url(#g)"/>
  <rect width="900" height="1600" fill="url(#glow)"/>

  <!-- Desk -->
  <rect x="90" y="980" width="720" height="110" rx="24" fill="#0a2f1c" fill-opacity="0.55"/>
  <rect x="120" y="1008" width="660" height="54" rx="18" fill="#ffffff" fill-opacity="0.12"/>

  <!-- Laptop -->
  <rect x="250" y="720" width="400" height="250" rx="24" fill="#ffffff" fill-opacity="0.14"/>
  <rect x="280" y="750" width="340" height="170" rx="16" fill="#0b3d24" fill-opacity="0.55"/>
  <rect x="315" y="785" width="270" height="18" rx="9" fill="#ffffff" fill-opacity="0.18"/>
  <rect x="315" y="820" width="230" height="18" rx="9" fill="#ffffff" fill-opacity="0.14"/>
  <rect x="315" y="855" width="250" height="18" rx="9" fill="#ffffff" fill-opacity="0.12"/>
  <rect x="235" y="970" width="430" height="42" rx="18" fill="#ffffff" fill-opacity="0.10"/>

  <!-- Person (abstract) -->
  <circle cx="170" cy="660" r="64" fill="#ffffff" fill-opacity="0.16"/>
  <path d="M80 910c25-105 115-165 190-165s165 60 190 165" fill="#ffffff" fill-opacity="0.10"/>
  <path d="M160 770c40 22 80 22 120 0" stroke="#ffffff" stroke-opacity="0.18" stroke-width="10" stroke-linecap="round"/>

  <!-- Subtle UI ticks -->
  <g fill="none" stroke="#ffffff" stroke-opacity="0.14" stroke-width="2">
    <path d="M110 210h270"/>
    <path d="M110 260h340"/>
    <path d="M110 310h220"/>
  </g>
</svg>

